Coordinates
version=1
nRows=6
nColumns=63
inDegrees=yes

Units are S.I. units (second, meters, Newtons, ...)
If the header above contains a line with 'inDegrees', this indicates whether rotational values are in degrees (yes) or radians (no).

endheader
time	pelvis_tilt	pelvis_list	pelvis_rotation	pelvis_tx	pelvis_ty	pelvis_tz	hip_flexion_r	hip_adduction_r	hip_rotation_r	knee_angle_r	knee_angle_r_beta	ankle_angle_r	subtalar_angle_r	mtp_angle_r	hip_flexion_l	hip_adduction_l	hip_rotation_l	knee_angle_l	knee_angle_l_beta	ankle_angle_l	subtalar_angle_l	mtp_angle_l	L5_S1_Flex_Ext	L5_S1_Lat_Bending	L5_S1_axial_rotation	L4_L5_Flex_Ext	L4_L5_Lat_Bending	L4_L5_axial_rotation	L3_L4_Flex_Ext	L3_L4_Lat_Bending	L3_L4_axial_rotation	L2_L3_Flex_Ext	L2_L3_Lat_Bending	L2_L3_axial_rotation	L1_L2_Flex_Ext	L1_L2_Lat_Bending	L1_L2_axial_rotation	L1_T12_Flex_Ext	L1_T12_Lat_Bending	L1_T12_axial_rotation	Abs_r3	Abs_r2	Abs_r1	Abs_t1	Abs_t2	neck_flexion	neck_bending	neck_rotation	arm_flex_r	arm_add_r	arm_rot_r	elbow_flex_r	pro_sup_r	wrist_flex_r	wrist_dev_r	arm_flex_l	arm_add_l	arm_rot_l	elbow_flex_l	pro_sup_l	wrist_flex_l	wrist_dev_l
      4.98305085	     -5.68860774	     -8.56666746	    102.57718201	      0.15951812	      1.11789022	      0.43274026	      3.34803145	     -6.82745368	    -11.83333349	      3.09566010	      0.05402946	     23.33280634	     13.38469539	      0.00000000	      6.72969446	      6.39034748	     -3.24760324	      5.76032933	      0.10053671	     12.67859986	      7.85251481	      0.00000000	     -0.13954454	     -0.45935092	      0.95857635	     -0.25914817	     -0.61093673	      1.01848737	     -0.22925773	     -1.11686583	      1.01848737	     -0.15948546	     -1.11686583	      0.83875431	     -0.12958106	     -0.93670840	      0.77884329	     -0.07973575	     -0.71153458	      0.71893226	     -0.99675271	     -5.19626950	      5.33131409	      0.00000000	      0.00000000	      9.33299824	     -0.60113594	     17.70333903	     11.74260560	    -10.47577768	    130.11959330	      5.73792178	      2.25456829	     -0.26202343	    -12.05057742	     10.82473037	    -10.67970606	    165.33546259	      0.77158485	     19.90929343	    -22.74804457	     -0.77200590
      5.00000000	     -5.62314647	     -8.71893962	    102.54202543	      0.15994633	      1.11767205	      0.43380177	      3.66199666	     -6.82289948	    -12.43043036	      3.25852757	      0.05687203	     23.51817023	     14.26821447	      0.00000000	      7.05415264	      6.31264748	     -3.48127526	      6.01425912	      0.10496862	     12.64207211	      8.08048707	      0.00000000	     -0.12952167	     -0.45608902	      0.96406471	     -0.24053470	     -0.60659840	      1.02431875	     -0.21279116	     -1.10893485	      1.02431875	     -0.14803032	     -1.10893485	      0.84355662	     -0.12027383	     -0.93005673	      0.78330258	     -0.07400868	     -0.70648189	      0.72304853	     -0.92516035	     -5.15937023	      5.36183869	      0.00000000	      0.00000000	      9.37712181	     -0.57688134	     17.80349380	     11.95415204	    -10.52976631	    130.21795660	      5.61131835	      2.28145149	     -0.78615000	    -12.09526924	     10.93441327	    -10.60047108	    166.45127004	      0.75864225	     21.60458526	    -22.58919904	      0.01466001
      5.01694915	     -5.60412243	     -8.85874175	    102.36377693	      0.16076303	      1.11740283	      0.43496932	      3.99765888	     -6.81937391	    -12.12429912	      3.41455969	      0.05959531	     23.62800562	     14.14687726	      0.00000000	      7.39560927	      6.22671555	     -4.26754250	      6.31543026	      0.11022505	     12.92873533	      8.94160486	      0.00000000	     -0.12912084	     -0.45978956	      1.02811538	     -0.23979031	     -0.61152011	      1.09237259	     -0.21213263	     -1.11793233	      1.09237259	     -0.14757221	     -1.11793233	      0.89960095	     -0.11990161	     -0.93760287	      0.83534374	     -0.07377965	     -0.71221402	      0.77108653	     -0.92229724	     -5.20123143	      5.71806929	      0.00000000	      0.00000000	      9.58533126	     -0.63143476	     17.71344179	     12.05504854	    -10.49582782	    130.84618233	      5.21390881	      2.19023244	     -1.30975160	    -12.08836763	     11.22731947	    -10.51253603	    167.83821885	      0.75462461	     23.62960434	    -22.40974968	      0.81009875
      5.03389831	     -5.58214388	     -8.98109991	    102.48760579	      0.16117199	      1.11713975	      0.43597579	      4.22547522	     -6.84294786	    -12.61157516	      3.55727356	      0.06208614	     23.78069011	     14.62097753	      0.00000000	      7.69756900	      6.22141047	     -3.96538052	      6.57327934	      0.11472537	     13.31831987	      8.71472999	      0.00000000	     -0.12782342	     -0.46540914	      1.08750514	     -0.23738087	     -0.61899416	      1.15547421	     -0.21000110	     -1.13159579	      1.15547421	     -0.14608939	     -1.13159579	      0.95156700	     -0.11869683	     -0.94906233	      0.88359793	     -0.07303830	     -0.72091877	      0.81562885	     -0.91302991	     -5.26480133	      6.04837733	      0.00000000	      0.00000000	      9.80449120	     -0.75609877	     17.08586476	     12.00220204	    -10.51826600	    130.81073350	      4.98624158	      2.18073020	     -1.91014936	    -12.04444782	     11.66169637	    -10.36274186	    170.17242028	      0.73316929	     26.18766752	    -22.27651629	      1.95346910
      5.05084746	     -5.60368422	     -9.13699508	    102.63211127	      0.16162172	      1.11681359	      0.43682073	      4.44260117	     -6.89302437	    -12.72516193	      3.63390388	      0.06342359	     23.82740035	     14.56827855	      0.00000000	      7.99464841	      6.25017467	     -4.07288305	      6.74429036	      0.11771007	     13.83383993	      9.07285054	      0.00000000	     -0.12645009	     -0.47788970	      1.16843471	     -0.23483045	     -0.63559330	      1.24146188	     -0.20774485	     -1.16194101	      1.24146188	     -0.14451980	     -1.16194101	      1.02238037	     -0.11742155	     -0.97451267	      0.94935320	     -0.07225358	     -0.74025114	      0.87632603	     -0.90322032	     -5.40598385	      6.49848332	      0.00000000	      0.00000000	     10.05544344	     -0.75825690	     16.54326245	     11.80528381	    -10.47986035	    131.18731757	      4.60379241	      2.15728321	     -2.63225910	    -11.95531801	     12.18602197	    -10.18419914	    172.67569986	      0.72651457	     29.53627911	    -22.22913769	      3.25228567
      5.06779661	     -5.69004619	     -9.30747549	    102.67813214	      0.16227920	      1.11642836	      0.43726611	      4.64781221	     -6.98689609	    -12.48400764	      3.67629462	      0.06416345	     23.83755148	     14.21071404	      0.00000000	      8.24382506	      6.34401652	     -4.13661478	      6.81719375	      0.11898248	     14.25517591	      9.19090801	      0.00000000	     -0.12231211	     -0.49963340	      1.27430936	     -0.22714582	     -0.66451242	      1.35395370	     -0.20094657	     -1.21480864	      1.35395370	     -0.13979051	     -1.21480864	      1.11502069	     -0.11357903	     -1.01885242	      1.03537636	     -0.06988914	     -0.77393213	      0.95573202	     -0.87366319	     -5.65195290	      7.08732639	      0.00000000	      0.00000000	     10.27402224	     -0.63913906	     16.10646274	     11.47608294	    -10.36468832	    132.22105370	      4.00672111	      2.06298383	     -3.22800620	    -11.79624297	     12.67102442	    -10.02927710	    174.72149639	      0.70420075	     33.23791126	    -22.17332276	      4.38340030
